<svg xmlns="http://www.w3.org/2000/svg" xmlns:xlink="http://www.w3.org/1999/xlink" width="52" height="52" viewBox="0 0 52 52">
  <defs>
    <clipPath id="clip-path">
      <rect id="사각형_347484" data-name="사각형 347484" width="35.148" height="37.927" fill="none"/>
    </clipPath>
    <clipPath id="clip-path-2">
      <rect id="사각형_347483" data-name="사각형 347483" width="35.148" height="37.926" fill="none"/>
    </clipPath>
    <clipPath id="clip-path-3">
      <rect id="사각형_347481" data-name="사각형 347481" width="20.25" height="27.405" fill="none"/>
    </clipPath>
  </defs>
  <g id="icon_category_01_52" transform="translate(-148.445 -557.445)">
    <rect id="사각형_1002" data-name="사각형 1002" width="52" height="52" transform="translate(148.445 557.445)" fill="none" opacity="0.21"/>
    <g id="그룹_475338" data-name="그룹 475338" transform="translate(156.872 564.481)">
      <g id="그룹_475337" data-name="그룹 475337" transform="translate(-0.001 0.001)" clip-path="url(#clip-path)">
        <g id="그룹_475336" data-name="그룹 475336" transform="translate(0 0)">
          <g id="그룹_475335" data-name="그룹 475335" clip-path="url(#clip-path-2)">
            <path id="패스_16325" data-name="패스 16325" d="M25.93,35.2a2.169,2.169,0,0,1-2.64,1.546L10.317,33.358a2.173,2.173,0,0,1-1.548-2.643l7.463-28.6A2.171,2.171,0,0,1,18.873.57L31.845,3.963A2.173,2.173,0,0,1,33.393,6.6Z" transform="translate(1.121 0.064)" fill="#fff"/>
            <path id="패스_16326" data-name="패스 16326" d="M25.93,35.2a2.169,2.169,0,0,1-2.64,1.546L10.317,33.358a2.173,2.173,0,0,1-1.548-2.643l7.463-28.6A2.171,2.171,0,0,1,18.873.57L31.845,3.963A2.173,2.173,0,0,1,33.393,6.6Z" transform="translate(1.121 0.064)" fill="none" stroke="#111" stroke-width="1"/>
            <path id="패스_16327" data-name="패스 16327" d="M25.93,35.2a2.169,2.169,0,0,1-2.64,1.546L10.317,33.358a2.173,2.173,0,0,1-1.548-2.643l7.463-28.6A2.171,2.171,0,0,1,18.873.57L31.845,3.963A2.173,2.173,0,0,1,33.393,6.6Z" transform="translate(1.121 0.064)" fill="none" stroke="#111" stroke-width="1"/>
            <path id="패스_16328" data-name="패스 16328" d="M10.6,21.154a.458.458,0,0,1-.214-.045A.661.661,0,0,1,10.189,21a.612.612,0,0,1-.158-.406.542.542,0,0,1,.35-.519.569.569,0,0,1,.779.519.625.625,0,0,1-.169.406.564.564,0,0,1-.4.158" transform="translate(1.293 2.58)" fill="#111"/>
            <path id="패스_16329" data-name="패스 16329" d="M25.218,25.007a.579.579,0,0,1-.418-.553.694.694,0,0,1,.011-.147.569.569,0,0,1,.689-.4.563.563,0,0,1,.429.542.661.661,0,0,1-.023.147.566.566,0,0,1-.542.418.644.644,0,0,1-.147-.011m-2.145-.564a.569.569,0,0,1-.418-.553.286.286,0,0,1,.023-.135.557.557,0,0,1,.689-.406.547.547,0,0,1,.4.689.553.553,0,0,1-.542.418.694.694,0,0,1-.147-.011m-2.145-.564a.566.566,0,0,1-.418-.542.644.644,0,0,1,.011-.147.567.567,0,0,1,.689-.406.576.576,0,0,1,.429.553.595.595,0,0,1-.564.564.661.661,0,0,1-.147-.023m-2.145-.553a.579.579,0,0,1-.418-.553.694.694,0,0,1,.011-.147.576.576,0,0,1,.7-.4.566.566,0,0,1,.418.542.661.661,0,0,1-.023.147.566.566,0,0,1-.542.418.644.644,0,0,1-.147-.011m-2.145-.564a.579.579,0,0,1-.418-.553.55.55,0,0,1,.011-.135.565.565,0,1,1,.553.7.644.644,0,0,1-.147-.011M14.494,22.2a.569.569,0,0,1-.418-.553.55.55,0,0,1,.011-.135.565.565,0,1,1,.553.711.661.661,0,0,1-.147-.023m-2.145-.564a.562.562,0,0,1-.406-.689.569.569,0,0,1,.689-.4.562.562,0,0,1-.135,1.106.661.661,0,0,1-.147-.023" transform="translate(1.537 2.644)" fill="#111"/>
            <path id="패스_16330" data-name="패스 16330" d="M25.8,25.135a.458.458,0,0,1-.214-.045.7.7,0,0,1-.192-.124.564.564,0,0,1-.158-.4.458.458,0,0,1,.045-.214.492.492,0,0,1,.113-.181.51.51,0,0,1,.192-.124.558.558,0,0,1,.61.124.4.4,0,0,1,.124.181.458.458,0,0,1,.045.214.529.529,0,0,1-.169.4.575.575,0,0,1-.4.169" transform="translate(3.251 3.092)" fill="#111"/>
            <line id="선_240" data-name="선 240" x1="1.209" y2="4.615" transform="translate(27.453 6.181)" fill="none" stroke="#111" stroke-linecap="round" stroke-width="1"/>
            <path id="패스_16331" data-name="패스 16331" d="M22.989,10.443l1.5-.879.879,1.5" transform="translate(2.962 1.232)" fill="none" stroke="#111" stroke-linecap="round" stroke-width="1"/>
            <path id="패스_16332" data-name="패스 16332" d="M22.021,8.163l3.284-.93,2.409,2.42" transform="translate(2.837 0.931)" fill="none" stroke="#111" stroke-linecap="round" stroke-width="1"/>
            <path id="사각형_347480" data-name="사각형 347480" d="M1.918,0H18.346a1.918,1.918,0,0,1,1.918,1.918V25.5a1.918,1.918,0,0,1-1.918,1.918H1.917A1.917,1.917,0,0,1,0,25.5V1.918A1.918,1.918,0,0,1,1.918,0Z" transform="translate(0.564 9.944)" fill="#4589ff"/>
            <g id="그룹_475334" data-name="그룹 475334" transform="translate(0.578 9.957)" opacity="0.25" style="mix-blend-mode: multiply;isolation: isolate">
              <g id="그룹_475333" data-name="그룹 475333">
                <g id="그룹_475332" data-name="그룹 475332" clip-path="url(#clip-path-3)">
                  <path id="패스_16333" data-name="패스 16333" d="M18.728,8.821c0,.044.014.086.014.131V32.041a2.171,2.171,0,0,1-2.165,2.165H.643c-.045,0-.087-.011-.131-.014a2.164,2.164,0,0,0,2.15,2.033H18.6a2.17,2.17,0,0,0,2.164-2.164V10.973a2.165,2.165,0,0,0-2.033-2.152" transform="translate(-0.512 -8.821)" fill="#4589ff"/>
                </g>
              </g>
            </g>
            <path id="사각형_347482" data-name="사각형 347482" d="M1.918,0H18.346a1.918,1.918,0,0,1,1.918,1.918V25.5a1.918,1.918,0,0,1-1.918,1.918H1.917A1.917,1.917,0,0,1,0,25.5V1.918A1.918,1.918,0,0,1,1.918,0Z" transform="translate(0.564 9.944)" fill="none" stroke="#111" stroke-width="1"/>
            <path id="패스_16334" data-name="패스 16334" d="M16.092,19.657a5.941,5.941,0,1,1-5.941-5.943,5.942,5.942,0,0,1,5.941,5.943" transform="translate(0.542 1.766)" fill="#34e6ea"/>
            <ellipse id="타원_1710" data-name="타원 1710" cx="5.941" cy="5.941" rx="5.941" ry="5.941" transform="translate(4.752 15.483)" fill="none" stroke="#111" stroke-width="1"/>
            <ellipse id="타원_1711" data-name="타원 1711" cx="2.952" cy="5.943" rx="2.952" ry="5.943" transform="translate(7.742 15.481)" fill="none" stroke="#111" stroke-width="1"/>
            <line id="선_241" data-name="선 241" x2="11.866" transform="translate(4.773 21.424)" fill="none" stroke="#111" stroke-width="1"/>
            <line id="선_242" data-name="선 242" x2="8.916" transform="translate(6.238 31.822)" fill="none" stroke="#111" stroke-linecap="round" stroke-width="1"/>
          </g>
        </g>
      </g>
    </g>
  </g>
</svg>
