<svg xmlns="http://www.w3.org/2000/svg" xmlns:xlink="http://www.w3.org/1999/xlink" width="52" height="52" viewBox="0 0 52 52">
  <defs>
    <clipPath id="clip-path">
      <rect id="사각형_347489" data-name="사각형 347489" width="32.488" height="32.487" fill="none"/>
    </clipPath>
    <clipPath id="clip-path-2">
      <rect id="사각형_347488" data-name="사각형 347488" width="32.488" height="32.486" fill="none"/>
    </clipPath>
    <clipPath id="clip-path-3">
      <rect id="사각형_347487" data-name="사각형 347487" width="27.754" height="27.754" fill="none"/>
    </clipPath>
  </defs>
  <g id="icon_category_03_52" transform="translate(-167.602 -612.602)">
    <rect id="사각형_19" data-name="사각형 19" width="52" height="52" transform="translate(167.602 612.602)" fill="none" opacity="0.21"/>
    <g id="그룹_475345" data-name="그룹 475345" transform="translate(177.288 622.358)">
      <g id="그룹_475344" data-name="그룹 475344" transform="translate(0 0)" clip-path="url(#clip-path)">
        <g id="그룹_475343" data-name="그룹 475343" transform="translate(0 0)">
          <g id="그룹_475342" data-name="그룹 475342" clip-path="url(#clip-path-2)">
            <path id="패스_16335" data-name="패스 16335" d="M10.417,5.681l-1.2-1.2a.972.972,0,0,1,0-1.374l1.2-1.2a.972.972,0,0,1,1.374,0l1.2,1.2a.972.972,0,0,1,0,1.374l-1.2,1.2a.972.972,0,0,1-1.374,0" transform="translate(1.151 0.209)" fill="#ffe749"/>
            <rect id="사각형_347485" data-name="사각형 347485" width="3.64" height="3.64" rx="0.861" transform="translate(9.681 4.003) rotate(-45)" fill="none" stroke="#111" stroke-width="1"/>
            <path id="패스_16336" data-name="패스 16336" d="M24.565,19.829l-1.2-1.2a.972.972,0,0,1,0-1.374l1.2-1.2a.972.972,0,0,1,1.374,0l1.2,1.2a.972.972,0,0,1,0,1.374l-1.2,1.2a.972.972,0,0,1-1.374,0" transform="translate(2.974 2.031)" fill="#ffe749"/>
            <rect id="사각형_347486" data-name="사각형 347486" width="3.64" height="3.64" rx="0.861" transform="translate(25.653 19.974) rotate(-45)" fill="none" stroke="#111" stroke-width="1"/>
            <path id="패스_16337" data-name="패스 16337" d="M1.925,4.034,3.737,2.222a2.625,2.625,0,0,1,3.129-.448L18.7,7.387c-1.484,1.641-3.189,3.565-4.962,5.593Z" transform="translate(0.248 0.186)" fill="#28c2e6"/>
            <path id="패스_16338" data-name="패스 16338" d="M27.871,26.955l-1.812,1.812-8.943-11.8c2.025-1.771,3.95-3.478,5.6-4.97l5.606,11.83a2.624,2.624,0,0,1-.447,3.132" transform="translate(2.205 1.544)" fill="#28c2e6"/>
            <path id="패스_16339" data-name="패스 16339" d="M1.9,19.959a.89.89,0,0,1,1.084-.123L5.446,21.09c-.741.9-1.369,1.665-1.857,2.276L.5,21.352Z" transform="translate(0.064 2.538)" fill="#28c2e6"/>
            <path id="패스_16340" data-name="패스 16340" d="M1.9,19.959a.89.89,0,0,1,1.084-.123L5.446,21.09c-.741.9-1.369,1.665-1.857,2.276L.5,21.352Z" transform="translate(0.064 2.538)" fill="none" stroke="#111" stroke-linejoin="round" stroke-width="1"/>
            <path id="패스_16341" data-name="패스 16341" d="M9.379,26.393a.877.877,0,0,1-.147,1.058L7.845,28.843,5.833,25.757c.616-.491,1.386-1.119,2.277-1.855Z" transform="translate(0.752 3.079)" fill="#28c2e6"/>
            <path id="패스_16342" data-name="패스 16342" d="M9.379,26.393a.877.877,0,0,1-.147,1.058L7.845,28.843,5.833,25.757c.616-.491,1.386-1.119,2.277-1.855Z" transform="translate(0.752 3.079)" fill="none" stroke="#111" stroke-linejoin="round" stroke-width="1"/>
            <g id="그룹_475341" data-name="그룹 475341" transform="translate(2.173 2.557)" opacity="0.25" style="mix-blend-mode: multiply;isolation: isolate">
              <g id="그룹_475340" data-name="그룹 475340">
                <g id="그룹_475339" data-name="그룹 475339" clip-path="url(#clip-path-3)">
                  <path id="패스_16343" data-name="패스 16343" d="M1.925,3.929l11.816,8.946q.782-.9,1.541-1.755L3.588,2.266Z" transform="translate(-1.925 -2.266)" fill="#28c2e6"/>
                  <path id="패스_16344" data-name="패스 16344" d="M17.115,16.571l8.943,11.8,1.663-1.663L18.87,15.029c-.576.507-1.158,1.02-1.755,1.542" transform="translate(0.032 -0.622)" fill="#28c2e6"/>
                </g>
              </g>
            </g>
            <path id="패스_16345" data-name="패스 16345" d="M3.449,28.61a2.079,2.079,0,0,1-.163-2.764c2.2-2.763,4.731-6.311,9.849-12.181l.009-.007.006-.01c3.713-4.258,7.207-8.161,9.049-10,1.129-1.129,3.449-2.219,6.533-3.067A2.164,2.164,0,0,1,29.312.5a2.249,2.249,0,0,1,2.167,2.827c-.848,3.083-1.937,5.4-3.067,6.531-1.864,1.865-5.763,5.357-10.01,9.061l0,0,0,0c-5.882,5.132-9.438,7.671-12.185,9.85a2.078,2.078,0,0,1-2.763-.164" transform="translate(0.365 0.064)" fill="#fff"/>
            <path id="패스_16346" data-name="패스 16346" d="M3.449,28.61a2.079,2.079,0,0,1-.163-2.764c2.2-2.763,4.731-6.311,9.849-12.181l.009-.007.006-.01c3.713-4.258,7.207-8.161,9.049-10,1.129-1.129,3.449-2.219,6.533-3.067A2.164,2.164,0,0,1,29.312.5a2.249,2.249,0,0,1,2.167,2.827c-.848,3.083-1.937,5.4-3.067,6.531-1.864,1.865-5.763,5.357-10.01,9.061l0,0,0,0c-5.882,5.132-9.438,7.671-12.185,9.85A2.078,2.078,0,0,1,3.449,28.61Z" transform="translate(0.365 0.064)" fill="none" stroke="#111" stroke-width="1"/>
            <path id="패스_16347" data-name="패스 16347" d="M24.926,6.8a2.646,2.646,0,0,0-2.647-2.647" transform="translate(2.871 0.535)" fill="none" stroke="#111" stroke-linecap="round" stroke-width="1"/>
            <path id="패스_16348" data-name="패스 16348" d="M1.925,4.034,3.737,2.222a2.625,2.625,0,0,1,3.129-.448L18.7,7.387c-1.484,1.641-3.189,3.565-4.962,5.593Z" transform="translate(0.248 0.186)" fill="none" stroke="#111" stroke-linejoin="round" stroke-width="1"/>
            <path id="패스_16349" data-name="패스 16349" d="M27.871,26.955l-1.812,1.812-8.943-11.8c2.025-1.771,3.95-3.478,5.6-4.97l5.606,11.83A2.624,2.624,0,0,1,27.871,26.955Z" transform="translate(2.205 1.544)" fill="none" stroke="#111" stroke-linejoin="round" stroke-width="1"/>
          </g>
        </g>
      </g>
    </g>
  </g>
</svg>
