<svg xmlns="http://www.w3.org/2000/svg" width="18" height="18" viewBox="0 0 18 18">
  <g id="icon_flag_18" transform="translate(-1398 -11662)">
    <rect id="사각형_2325" data-name="사각형 2325" width="18" height="18" transform="translate(1398 11662)" fill="none"/>
    <g id="그룹_2588" data-name="그룹 2588" transform="translate(916.139 11240.035)">
      <g id="그룹_2589" data-name="그룹 2589" transform="translate(484 423.927)">
        <g id="그룹_2588-2" data-name="그룹 2588" transform="translate(0 0)">
          <path id="패스_13746" data-name="패스 13746" d="M484.434,463.7a.418.418,0,0,1-.417-.417v-4.628L484,454.646a.418.418,0,0,1,.22-.369,9.373,9.373,0,0,1,4.157-.8,8,8,0,0,1,3.151.674,6.654,6.654,0,0,0,2.587.578,3.4,3.4,0,0,0,2.826-1.064.417.417,0,0,1,.766.229l.016,8.642a.418.418,0,0,1-.22.369,9.376,9.376,0,0,1-4.156.8,8,8,0,0,1-3.151-.674,6.654,6.654,0,0,0-2.587-.578,3.4,3.4,0,0,0-2.826,1.064A.417.417,0,0,1,484.434,463.7Zm3.174-2.086a7.435,7.435,0,0,1,2.884.633,7.212,7.212,0,0,0,2.854.619,9.907,9.907,0,0,0,3.309-.51.351.351,0,0,0,.233-.331l-.013-7.011a.1.1,0,0,0-.157-.089,5.034,5.034,0,0,1-2.6.637,7.437,7.437,0,0,1-2.884-.633,7.21,7.21,0,0,0-2.854-.619,9.56,9.56,0,0,0-3.542.6l.016,3.743v3.694A4.919,4.919,0,0,1,487.608,461.617Z" transform="translate(-484 -453.479)" fill="#009c75" stroke="#009c75" stroke-width="0.7"/>
        </g>
      </g>
      <g id="그룹_2590" data-name="그룹 2590" transform="translate(484 422.958)">
        <path id="패스_13747" data-name="패스 13747" d="M484.417,438.971a.4.4,0,0,1-.417-.379V423.337a.419.419,0,0,1,.834,0v15.254A.4.4,0,0,1,484.417,438.971Z" transform="translate(-484 -422.958)" fill="#009c75" stroke="#009c75" stroke-width="0.7"/>
      </g>
    </g>
  </g>
</svg>
