<svg xmlns="http://www.w3.org/2000/svg" width="30" height="30" viewBox="0 0 30 30">
  <g id="icon_call_30" transform="translate(-337 -11322)">
    <rect id="사각형_2327" data-name="사각형 2327" width="30" height="30" transform="translate(337 11322)" fill="none"/>
    <path id="패스_13432" data-name="패스 13432" d="M87.579,33.357H86.385a6.63,6.63,0,0,0-.556-1.539A7.59,7.59,0,0,0,83.9,29.424a10.19,10.19,0,0,0-12.61,0,7.59,7.59,0,0,0-1.932,2.394,6.629,6.629,0,0,0-.556,1.539H67.605a2.5,2.5,0,0,0-2.5,2.5v4.6a2.5,2.5,0,0,0,2.5,2.5h1.4a.365.365,0,0,0,.365-.365V34.774c0-3.752,3.688-6.8,8.22-6.8s8.22,3.052,8.22,6.8v6.761a5.739,5.739,0,0,1-.466,2.262,6.549,6.549,0,0,1-1.3,1.949,8.548,8.548,0,0,1-4.3,2.357,2.238,2.238,0,1,0,.079.731,9.3,9.3,0,0,0,4.749-2.583,7.276,7.276,0,0,0,1.443-2.167,6.578,6.578,0,0,0,.366-1.131h1.194a2.5,2.5,0,0,0,2.5-2.5v-4.6A2.5,2.5,0,0,0,87.579,33.357ZM68.641,42.222H67.605a1.768,1.768,0,0,1-1.766-1.766v-4.6a1.768,1.768,0,0,1,1.766-1.766h1.036v8.134Zm8.951,7.992A1.508,1.508,0,1,1,79.1,48.705,1.51,1.51,0,0,1,77.592,50.213Zm11.752-9.757a1.768,1.768,0,0,1-1.766,1.766H86.543V34.088h1.036a1.768,1.768,0,0,1,1.766,1.766Z" transform="translate(274.408 11297.908)" fill="#111" stroke="#111" stroke-width="1"/>
  </g>
</svg>
