<svg xmlns="http://www.w3.org/2000/svg" width="22.089" height="18.5" viewBox="0 0 22.089 18.5">
  <g id="그룹_490883" data-name="그룹 490883" transform="translate(15955.25 4334.25)">
    <path id="Icon_ion-ios-chatbubble-outline" data-name="Icon ion-ios-chatbubble-outline" d="M15.289,7.65c-5.456,0-9.9,3.488-9.9,7.779a6.663,6.663,0,0,0,2.784,5.282,11.542,11.542,0,0,0,7.059,2.211,12.171,12.171,0,0,0,3.921-.523c.034-.011.073-.028.113-.039a.174.174,0,0,1,.045-.011,2.909,2.909,0,0,1,.827-.118,2.951,2.951,0,0,1,.917.146l.017.006c.034.011.5.186.619.242l2.227.967a14.559,14.559,0,0,1-.776-2.677,2.037,2.037,0,0,1,.354-1.136c.028-.039.056-.079.09-.118s.073-.1.1-.129a6.572,6.572,0,0,0,1.5-4.106c.006-4.286-4.438-7.774-9.894-7.774m0-.9c5.968,0,10.8,3.887,10.8,8.679a7.465,7.465,0,0,1-1.71,4.686,2.482,2.482,0,0,0-.2.276s.056-.09.062-.107a1.092,1.092,0,0,0-.2.63c0,.079,1.007,3.262,1.007,3.262a.475.475,0,0,1-.427.563.548.548,0,0,1-.135.011.844.844,0,0,1-.208-.028l-.09-.034-2.846-1.238c-.051-.022-.506-.2-.562-.219l-.034-.011a.142.142,0,0,1,.034.011,1.9,1.9,0,0,0-.63-.1,1.95,1.95,0,0,0-.579.084c-.006,0-.011,0-.011.006-.028.011-.056.017-.084.028a13.036,13.036,0,0,1-4.224.579c-5.962,0-10.744-3.606-10.744-8.4S9.326,6.75,15.289,6.75Z" transform="translate(-15959.5 -4340.75)" fill="#009c75" stroke="#009c75" stroke-width="0.5"/>
    <path id="패스_40355" data-name="패스 40355" d="M4.212-2.116v-.1a2.73,2.73,0,0,1,.633-1.843,2.3,2.3,0,0,1,.64-.481,2.882,2.882,0,0,0,1.54-2.6c0-1.732-1.311-2.9-3.272-2.9A3.032,3.032,0,0,0,.45-7.067H2.08A1.607,1.607,0,0,1,3.749-8.682,1.531,1.531,0,0,1,5.385-7.147,2.055,2.055,0,0,1,4.26-5.4c-.991.608-1.572,1.21-1.588,3.187v.1ZM3.487,1.13A1.081,1.081,0,0,0,4.559.064,1.081,1.081,0,0,0,3.487-1,1.062,1.062,0,0,0,2.422.064,1.062,1.062,0,0,0,3.487,1.13Z" transform="translate(-15947.943 -4320.546)" fill="#009c75"/>
  </g>
</svg>
